<svg xmlns="http://www.w3.org/2000/svg" width="1200" height="630" viewBox="0 0 1200 630">
  <rect width="1200" height="630" fill="#0a0e1a"/>
  <rect x="0" y="0" width="1200" height="4" fill="#00ff41"/>
  <rect x="0" y="626" width="1200" height="4" fill="#00ff41"/>
  <text x="600" y="240" text-anchor="middle" font-family="monospace" font-size="72" font-weight="bold" fill="#00ff41">WebSecCheck</text>
  <text x="600" y="340" text-anchor="middle" font-family="sans-serif" font-size="36" fill="#e5e7eb">Free Website Security Scanner</text>
  <text x="600" y="420" text-anchor="middle" font-family="sans-serif" font-size="24" fill="#9ca3af">OWASP Top 10 · 45+ Checks · Results in 30 Seconds</text>
  <rect x="100" y="500" width="140" height="40" rx="8" fill="none" stroke="#00ff41" stroke-opacity="0.3"/>
  <text x="170" y="526" text-anchor="middle" font-family="monospace" font-size="14" fill="#00ff41">SSL/TLS</text>
  <rect x="280" y="500" width="140" height="40" rx="8" fill="none" stroke="#00ff41" stroke-opacity="0.3"/>
  <text x="350" y="526" text-anchor="middle" font-family="monospace" font-size="14" fill="#00ff41">Headers</text>
  <rect x="460" y="500" width="120" height="40" rx="8" fill="none" stroke="#00ff41" stroke-opacity="0.3"/>
  <text x="520" y="526" text-anchor="middle" font-family="monospace" font-size="14" fill="#00ff41">DNS</text>
  <rect x="620" y="500" width="140" height="40" rx="8" fill="none" stroke="#00ff41" stroke-opacity="0.3"/>
  <text x="690" y="526" text-anchor="middle" font-family="monospace" font-size="14" fill="#00ff41">Server</text>
  <rect x="800" y="500" width="140" height="40" rx="8" fill="none" stroke="#00ff41" stroke-opacity="0.3"/>
  <text x="870" y="526" text-anchor="middle" font-family="monospace" font-size="14" fill="#00ff41">Cookies</text>
  <rect x="980" y="500" width="120" height="40" rx="8" fill="none" stroke="#00ff41" stroke-opacity="0.3"/>
  <text x="1040" y="526" text-anchor="middle" font-family="monospace" font-size="14" fill="#00ff41">CMS</text>
</svg>
